<?xml version="1.0" standalone="no"?><!DOCTYPE svg PUBLIC "-//W3C//DTD SVG 1.1//EN" "http://www.w3.org/Graphics/SVG/1.1/DTD/svg11.dtd"><svg t="1715841780797" class="icon" viewBox="0 0 1024 1024" version="1.1" xmlns="http://www.w3.org/2000/svg" p-id="997" xmlns:xlink="http://www.w3.org/1999/xlink" width="200" height="200"><path d="M786.255815 271.198466l-24.527268-12.295633c1.727948-3.167905 2.399928-6.807797 1.919943-10.38369-16.559506-103.372915-69.541925-197.03412-131.844065-233.113043a89.11734 89.11734 0 0 0-88.013374-6.879794c-33.287007 16.655503-55.550342 55.718337-63.294111 110.084714l-159.363244-79.517627-90.245307 45.030656L112.867912 143.018292V727.608845l590.086389 294.471212 208.265785-103.932898V333.556605l-124.964271-62.358139zM559.342587 39.501381a56.494314 56.494314 0 0 1 55.070357 5.895824c50.526492 29.247127 95.83714 108.804753 112.692636 196.202145l-214.953585-107.196801c0.943972-1.759947 1.575953-3.655891 1.855945-5.631832 5.37584-45.014657 21.895347-77.557685 45.334647-89.269336z" fill="#FDD7AD" p-id="998"></path><path d="M807.079194 385.515055v463.354172L702.954301 1022.088057V437.481504z" fill="#F09372" p-id="999"></path><path d="M911.212086 333.556605L702.954301 437.481504 321.141696 246.94319V39.085394l175.634758 87.645384 249.744547 124.548283 39.742814 19.919405z" fill="#59474E" p-id="1000"></path><path d="M911.212086 333.556605v584.598554l-104.132892-69.277933V385.507055z" fill="#F0785A" p-id="1001"></path><path d="M234.352286 91.051843v103.924898l-3.463897 6.927793L112.867912 143.018292l118.020477-58.894243z" fill="#F09372" p-id="1002"></path><path d="M911.212086 918.163159L702.954301 1022.080057l104.132892-173.21083z" fill="#CC6F56" p-id="1003"></path><path d="M321.125696 39.085394v207.857796l-90.237307-45.038656 3.463897-6.927793V91.051843l-3.463897-6.927794z" fill="#F09372" p-id="1004"></path><path d="M538.231217 372.507443a17.359482 17.359482 0 0 1-17.143488-14.623564c-1.135966-7.199785-2.439927-14.39957-4.079878-21.43136-6.335811-29.455121-15.999523-58.102266-28.799141-85.389452a225.385274 225.385274 0 0 0-82.013552-101.708964 53.326409 53.326409 0 0 0-72.04585 7.527775 139.931824 139.931824 0 0 0-28.399153 75.765739 17.343482 17.343482 0 0 1-19.255425 15.199546 17.327483 17.327483 0 0 1-15.223546-19.207426 171.394885 171.394885 0 0 1 36.894899-94.725174c29.711113-33.614997 72.861826-39.070834 115.372557-14.583564a259.03227 259.03227 0 0 1 96.101132 117.004508 426.54727 426.54727 0 0 1 31.231068 92.501239c1.783947 7.567774 3.255903 15.599534 4.527865 23.647295a17.311483 17.311483 0 0 1-3.959882 13.959583 17.399481 17.399481 0 0 1-13.207606 6.063819zM746.489002 268.582544a17.335483 17.335483 0 0 1-17.119489-14.583564c-14.775559-92.197248-62.046148-177.978688-114.956569-208.601775a56.478314 56.478314 0 0 0-55.070357-5.895824c-23.4393 11.71165-39.958807 44.24668-45.334647 89.277336a17.359482 17.359482 0 0 1-19.295424 15.103549 17.335483 17.335483 0 0 1-15.183547-19.223426c6.879795-57.614281 29.719113-98.85305 64.254082-116.132534a89.11734 89.11734 0 0 1 88.013374 6.879794c62.302141 36.070924 115.284559 129.740128 131.844065 233.113043a17.327483 17.327483 0 0 1-17.151488 20.063401z" fill="#E6E7E8" p-id="1005"></path></svg>