<svg xmlns="http://www.w3.org/2000/svg" xmlns:xlink="http://www.w3.org/1999/xlink" width="267" zoomAndPan="magnify" viewBox="0 0 200.25 52.499999" height="70" preserveAspectRatio="xMidYMid meet" version="1.0"><defs><g/><clipPath id="7bd7176fc1"><path d="M 5 3.84375 L 43 3.84375 L 43 51.390625 L 5 51.390625 Z M 5 3.84375 " clip-rule="nonzero"/></clipPath><clipPath id="1c30eb3111"><path d="M 33 21 L 39 21 L 39 51.390625 L 33 51.390625 Z M 33 21 " clip-rule="nonzero"/></clipPath><clipPath id="d0b69b35db"><path d="M 33 43 L 43 43 L 43 51.390625 L 33 51.390625 Z M 33 43 " clip-rule="nonzero"/></clipPath><clipPath id="b485a5401d"><path d="M 13 3.84375 L 37 3.84375 L 37 22 L 13 22 Z M 13 3.84375 " clip-rule="nonzero"/></clipPath></defs><g clip-path="url(#7bd7176fc1)"><path fill="#fdd7ad" d="M 37.082031 16.433594 L 35.941406 15.863281 C 36.023438 15.71875 36.054688 15.546875 36.03125 15.382812 C 35.261719 10.582031 32.800781 6.234375 29.910156 4.558594 C 29.304688 4.148438 28.636719 3.914062 27.910156 3.855469 C 27.179688 3.800781 26.484375 3.925781 25.824219 4.238281 C 24.277344 5.011719 23.242188 6.824219 22.882812 9.351562 L 15.484375 5.65625 L 11.292969 7.75 L 5.8125 10.484375 L 5.8125 37.628906 L 33.214844 51.300781 L 42.882812 46.472656 L 42.882812 19.332031 Z M 26.546875 5.675781 C 26.964844 5.496094 27.402344 5.429688 27.859375 5.480469 C 28.316406 5.527344 28.730469 5.683594 29.101562 5.949219 C 31.449219 7.308594 33.550781 11.003906 34.335938 15.058594 L 24.355469 10.082031 C 24.398438 10 24.425781 9.914062 24.441406 9.820312 C 24.691406 7.730469 25.457031 6.21875 26.546875 5.675781 Z M 26.546875 5.675781 " fill-opacity="1" fill-rule="nonzero"/></g><g clip-path="url(#1c30eb3111)"><path fill="#f09372" d="M 38.046875 21.742188 L 38.046875 43.257812 L 33.214844 51.300781 L 33.214844 24.15625 Z M 38.046875 21.742188 " fill-opacity="1" fill-rule="nonzero"/></g><path fill="#59474e" d="M 42.882812 19.332031 L 33.214844 24.15625 L 15.484375 15.308594 L 15.484375 5.65625 L 23.640625 9.726562 L 35.234375 15.511719 L 37.082031 16.433594 Z M 42.882812 19.332031 " fill-opacity="1" fill-rule="nonzero"/><path fill="#f0785a" d="M 42.882812 19.332031 L 42.882812 46.476562 L 38.046875 43.257812 L 38.046875 21.742188 Z M 42.882812 19.332031 " fill-opacity="1" fill-rule="nonzero"/><path fill="#f09372" d="M 11.453125 8.070312 L 11.453125 12.894531 L 11.292969 13.21875 L 5.8125 10.484375 L 11.292969 7.75 Z M 11.453125 8.070312 " fill-opacity="1" fill-rule="nonzero"/><g clip-path="url(#d0b69b35db)"><path fill="#cc6f56" d="M 42.882812 46.476562 L 33.214844 51.300781 L 38.046875 43.257812 Z M 42.882812 46.476562 " fill-opacity="1" fill-rule="nonzero"/></g><path fill="#f09372" d="M 15.484375 5.65625 L 15.484375 15.308594 L 11.292969 13.21875 L 11.453125 12.894531 L 11.453125 8.070312 L 11.292969 7.75 Z M 15.484375 5.65625 " fill-opacity="1" fill-rule="nonzero"/><g clip-path="url(#b485a5401d)"><path fill="#e6e7e8" d="M 25.566406 21.140625 C 25.367188 21.140625 25.191406 21.074219 25.042969 20.945312 C 24.890625 20.816406 24.800781 20.65625 24.769531 20.460938 C 24.714844 20.125 24.65625 19.792969 24.578125 19.464844 C 24.285156 18.097656 23.835938 16.765625 23.242188 15.5 C 22.449219 13.542969 21.179688 11.96875 19.433594 10.777344 C 19.183594 10.589844 18.910156 10.457031 18.609375 10.371094 C 18.308594 10.289062 18.003906 10.265625 17.691406 10.296875 C 17.382812 10.328125 17.089844 10.417969 16.8125 10.558594 C 16.535156 10.703125 16.292969 10.890625 16.089844 11.125 C 15.292969 12.167969 14.855469 13.339844 14.769531 14.644531 C 14.742188 14.867188 14.644531 15.046875 14.46875 15.183594 C 14.292969 15.320312 14.097656 15.375 13.875 15.351562 C 13.65625 15.324219 13.476562 15.226562 13.335938 15.050781 C 13.199219 14.875 13.144531 14.679688 13.167969 14.457031 C 13.285156 12.816406 13.855469 11.347656 14.882812 10.058594 C 16.261719 8.5 18.265625 8.246094 20.238281 9.382812 C 22.28125 10.738281 23.765625 12.550781 24.703125 14.816406 C 25.351562 16.191406 25.832031 17.625 26.152344 19.109375 C 26.234375 19.460938 26.304688 19.835938 26.363281 20.210938 C 26.398438 20.453125 26.339844 20.667969 26.179688 20.855469 C 26.015625 21.046875 25.8125 21.140625 25.566406 21.140625 Z M 35.234375 16.3125 C 35.035156 16.3125 34.863281 16.25 34.710938 16.121094 C 34.5625 15.992188 34.472656 15.832031 34.441406 15.636719 C 33.753906 11.355469 31.558594 7.371094 29.101562 5.949219 C 28.730469 5.683594 28.316406 5.527344 27.859375 5.476562 C 27.402344 5.429688 26.964844 5.496094 26.546875 5.675781 C 25.457031 6.21875 24.691406 7.730469 24.441406 9.820312 C 24.414062 10.042969 24.3125 10.222656 24.136719 10.359375 C 23.960938 10.496094 23.765625 10.550781 23.542969 10.523438 C 23.324219 10.496094 23.144531 10.398438 23.007812 10.222656 C 22.871094 10.046875 22.8125 9.851562 22.839844 9.628906 C 23.160156 6.957031 24.21875 5.039062 25.824219 4.238281 C 26.484375 3.925781 27.179688 3.800781 27.90625 3.855469 C 28.636719 3.914062 29.304688 4.148438 29.910156 4.558594 C 32.800781 6.234375 35.261719 10.582031 36.03125 15.382812 C 36.050781 15.5 36.042969 15.613281 36.011719 15.726562 C 35.980469 15.839844 35.925781 15.941406 35.847656 16.03125 C 35.773438 16.121094 35.679688 16.191406 35.574219 16.238281 C 35.464844 16.289062 35.351562 16.3125 35.234375 16.3125 Z M 35.234375 16.3125 " fill-opacity="1" fill-rule="nonzero"/></g><g fill="#000000" fill-opacity="1"><g transform="translate(56.616093, 24.315508)"><g><path d="M 7.640625 0.203125 C 5.648438 0.203125 4.175781 -0.265625 3.21875 -1.203125 C 2.257812 -2.148438 1.78125 -3.546875 1.78125 -5.390625 L 1.78125 -14.40625 L 4.5625 -14.40625 L 4.5625 -5.421875 C 4.5625 -4.367188 4.816406 -3.578125 5.328125 -3.046875 C 5.835938 -2.523438 6.609375 -2.265625 7.640625 -2.265625 C 9.679688 -2.265625 10.703125 -3.316406 10.703125 -5.421875 L 10.703125 -14.40625 L 13.484375 -14.40625 L 13.484375 -5.390625 C 13.484375 -3.546875 13.003906 -2.148438 12.046875 -1.203125 C 11.085938 -0.265625 9.617188 0.203125 7.640625 0.203125 Z M 7.640625 0.203125 "/></g></g></g><g fill="#000000" fill-opacity="1"><g transform="translate(71.87407, 24.315508)"><g><path d="M 1.5625 0 L 1.5625 -10.859375 L 4.1875 -10.859375 L 4.1875 -9.265625 L 4.390625 -9.21875 C 5.066406 -10.457031 6.164062 -11.078125 7.6875 -11.078125 C 8.9375 -11.078125 9.851562 -10.734375 10.4375 -10.046875 C 11.03125 -9.359375 11.328125 -8.363281 11.328125 -7.0625 L 11.328125 0 L 8.59375 0 L 8.59375 -6.734375 C 8.59375 -7.453125 8.445312 -7.96875 8.15625 -8.28125 C 7.875 -8.601562 7.414062 -8.765625 6.78125 -8.765625 C 6 -8.765625 5.390625 -8.507812 4.953125 -8 C 4.515625 -7.5 4.296875 -6.707031 4.296875 -5.625 L 4.296875 0 Z M 1.5625 0 "/></g></g></g><g fill="#000000" fill-opacity="1"><g transform="translate(84.592332, 24.315508)"><g><path d="M 7.5 -2.59375 L 8.203125 -0.578125 C 7.910156 -0.328125 7.539062 -0.132812 7.09375 0 C 6.644531 0.132812 6.140625 0.203125 5.578125 0.203125 C 4.398438 0.203125 3.503906 -0.113281 2.890625 -0.75 C 2.285156 -1.394531 1.984375 -2.328125 1.984375 -3.546875 L 1.984375 -8.703125 L 0.328125 -8.703125 L 0.328125 -10.875 L 1.984375 -10.875 L 1.984375 -12.984375 L 4.703125 -13.4375 L 4.703125 -10.875 L 7.796875 -10.875 L 7.796875 -8.703125 L 4.703125 -8.703125 L 4.703125 -3.75 C 4.703125 -3.207031 4.8125 -2.8125 5.03125 -2.5625 C 5.257812 -2.320312 5.585938 -2.203125 6.015625 -2.203125 C 6.503906 -2.203125 6.925781 -2.332031 7.28125 -2.59375 Z M 7.5 -2.59375 "/></g></g></g><g fill="#000000" fill-opacity="1"><g transform="translate(93.028523, 24.315508)"><g><path d="M 2.921875 -12.171875 C 2.429688 -12.171875 2.03125 -12.316406 1.71875 -12.609375 C 1.414062 -12.910156 1.265625 -13.296875 1.265625 -13.765625 C 1.265625 -14.234375 1.414062 -14.613281 1.71875 -14.90625 C 2.03125 -15.207031 2.429688 -15.359375 2.921875 -15.359375 C 3.253906 -15.359375 3.546875 -15.289062 3.796875 -15.15625 C 4.054688 -15.019531 4.253906 -14.832031 4.390625 -14.59375 C 4.535156 -14.351562 4.609375 -14.078125 4.609375 -13.765625 C 4.609375 -13.460938 4.535156 -13.1875 4.390625 -12.9375 C 4.253906 -12.695312 4.054688 -12.507812 3.796875 -12.375 C 3.546875 -12.238281 3.253906 -12.171875 2.921875 -12.171875 Z M 1.5625 0 L 1.5625 -10.859375 L 4.296875 -10.859375 L 4.296875 0 Z M 1.5625 0 "/></g></g></g><g fill="#000000" fill-opacity="1"><g transform="translate(98.875773, 24.315508)"><g><path d="M 7.5 -2.59375 L 8.203125 -0.578125 C 7.910156 -0.328125 7.539062 -0.132812 7.09375 0 C 6.644531 0.132812 6.140625 0.203125 5.578125 0.203125 C 4.398438 0.203125 3.503906 -0.113281 2.890625 -0.75 C 2.285156 -1.394531 1.984375 -2.328125 1.984375 -3.546875 L 1.984375 -8.703125 L 0.328125 -8.703125 L 0.328125 -10.875 L 1.984375 -10.875 L 1.984375 -12.984375 L 4.703125 -13.4375 L 4.703125 -10.875 L 7.796875 -10.875 L 7.796875 -8.703125 L 4.703125 -8.703125 L 4.703125 -3.75 C 4.703125 -3.207031 4.8125 -2.8125 5.03125 -2.5625 C 5.257812 -2.320312 5.585938 -2.203125 6.015625 -2.203125 C 6.503906 -2.203125 6.925781 -2.332031 7.28125 -2.59375 Z M 7.5 -2.59375 "/></g></g></g><g fill="#000000" fill-opacity="1"><g transform="translate(107.311965, 24.315508)"><g><path d="M 4.515625 0.203125 C 3.535156 0.203125 2.785156 -0.0546875 2.265625 -0.578125 C 1.753906 -1.109375 1.5 -1.914062 1.5 -3 L 1.5 -15.234375 L 4.21875 -15.234375 L 4.21875 -3.109375 C 4.21875 -2.441406 4.492188 -2.109375 5.046875 -2.109375 C 5.210938 -2.109375 5.382812 -2.132812 5.5625 -2.1875 L 5.6875 -2.140625 L 5.9375 -0.046875 C 5.789062 0.0234375 5.59375 0.0820312 5.34375 0.125 C 5.09375 0.175781 4.816406 0.203125 4.515625 0.203125 Z M 4.515625 0.203125 "/></g></g></g><g fill="#000000" fill-opacity="1"><g transform="translate(113.552969, 24.315508)"><g><path d="M 10.734375 -4.8125 L 3.75 -4.8125 C 3.832031 -3.863281 4.101562 -3.175781 4.5625 -2.75 C 5.019531 -2.320312 5.644531 -2.109375 6.4375 -2.109375 C 7.0625 -2.109375 7.566406 -2.222656 7.953125 -2.453125 C 8.347656 -2.691406 8.660156 -3.046875 8.890625 -3.515625 L 9.09375 -3.515625 L 10.90625 -2.359375 C 10.550781 -1.597656 10.015625 -0.976562 9.296875 -0.5 C 8.585938 -0.03125 7.632812 0.203125 6.4375 0.203125 C 5.3125 0.203125 4.34375 -0.0078125 3.53125 -0.4375 C 2.71875 -0.863281 2.085938 -1.5 1.640625 -2.34375 C 1.191406 -3.1875 0.96875 -4.210938 0.96875 -5.421875 C 0.96875 -6.660156 1.203125 -7.703125 1.671875 -8.546875 C 2.140625 -9.390625 2.769531 -10.019531 3.5625 -10.4375 C 4.351562 -10.863281 5.25 -11.078125 6.25 -11.078125 C 7.78125 -11.078125 8.953125 -10.664062 9.765625 -9.84375 C 10.585938 -9.03125 11 -7.835938 11 -6.265625 C 11 -5.691406 10.976562 -5.25 10.9375 -4.9375 Z M 8.390625 -6.578125 C 8.367188 -7.410156 8.175781 -8.015625 7.8125 -8.390625 C 7.457031 -8.765625 6.9375 -8.953125 6.25 -8.953125 C 4.863281 -8.953125 4.050781 -8.160156 3.8125 -6.578125 Z M 8.390625 -6.578125 "/></g></g></g><g fill="#000000" fill-opacity="1"><g transform="translate(125.355759, 24.315508)"><g><path d="M 5.375 0.203125 C 4.507812 0.203125 3.742188 -0.00390625 3.078125 -0.421875 C 2.421875 -0.835938 1.90625 -1.46875 1.53125 -2.3125 C 1.15625 -3.15625 0.96875 -4.191406 0.96875 -5.421875 C 0.96875 -6.660156 1.160156 -7.703125 1.546875 -8.546875 C 1.929688 -9.390625 2.460938 -10.019531 3.140625 -10.4375 C 3.828125 -10.863281 4.613281 -11.078125 5.5 -11.078125 C 6.175781 -11.078125 6.757812 -10.957031 7.25 -10.71875 C 7.75 -10.488281 8.171875 -10.128906 8.515625 -9.640625 L 8.734375 -9.6875 L 8.734375 -15.234375 L 11.453125 -15.234375 L 11.453125 0 L 8.734375 0 L 8.734375 -1.40625 L 8.515625 -1.453125 C 8.210938 -0.929688 7.796875 -0.523438 7.265625 -0.234375 C 6.742188 0.0546875 6.113281 0.203125 5.375 0.203125 Z M 6.25 -2.109375 C 7.019531 -2.109375 7.628906 -2.378906 8.078125 -2.921875 C 8.523438 -3.472656 8.75 -4.304688 8.75 -5.421875 C 8.75 -6.535156 8.523438 -7.367188 8.078125 -7.921875 C 7.628906 -8.472656 7.019531 -8.75 6.25 -8.75 C 5.445312 -8.75 4.832031 -8.484375 4.40625 -7.953125 C 3.988281 -7.421875 3.78125 -6.578125 3.78125 -5.421875 C 3.78125 -4.285156 3.988281 -3.445312 4.40625 -2.90625 C 4.832031 -2.375 5.445312 -2.109375 6.25 -2.109375 Z M 6.25 -2.109375 "/></g></g></g><g fill="#000000" fill-opacity="1"><g transform="translate(138.369337, 24.315508)"><g/></g></g><g fill="#000000" fill-opacity="1"><g transform="translate(143.123926, 24.315508)"><g><path d="M 6.375 0.203125 C 5.382812 0.203125 4.5 0.0820312 3.71875 -0.15625 C 2.9375 -0.40625 2.285156 -0.726562 1.765625 -1.125 C 1.253906 -1.53125 0.859375 -1.972656 0.578125 -2.453125 L 2.140625 -4.359375 L 2.390625 -4.359375 C 2.828125 -3.710938 3.378906 -3.195312 4.046875 -2.8125 C 4.710938 -2.4375 5.488281 -2.25 6.375 -2.25 C 7.144531 -2.25 7.722656 -2.410156 8.109375 -2.734375 C 8.492188 -3.054688 8.6875 -3.5 8.6875 -4.0625 C 8.6875 -4.40625 8.625 -4.691406 8.5 -4.921875 C 8.375 -5.148438 8.164062 -5.347656 7.875 -5.515625 C 7.59375 -5.679688 7.203125 -5.820312 6.703125 -5.9375 L 4.859375 -6.359375 C 3.566406 -6.660156 2.601562 -7.148438 1.96875 -7.828125 C 1.332031 -8.515625 1.015625 -9.410156 1.015625 -10.515625 C 1.015625 -11.328125 1.21875 -12.039062 1.625 -12.65625 C 2.03125 -13.269531 2.617188 -13.75 3.390625 -14.09375 C 4.171875 -14.4375 5.109375 -14.609375 6.203125 -14.609375 C 7.304688 -14.609375 8.253906 -14.460938 9.046875 -14.171875 C 9.835938 -13.878906 10.503906 -13.429688 11.046875 -12.828125 L 9.640625 -10.890625 L 9.390625 -10.890625 C 8.984375 -11.316406 8.515625 -11.632812 7.984375 -11.84375 C 7.460938 -12.0625 6.867188 -12.171875 6.203125 -12.171875 C 5.410156 -12.171875 4.8125 -12.03125 4.40625 -11.75 C 4 -11.476562 3.796875 -11.101562 3.796875 -10.625 C 3.796875 -10.164062 3.9375 -9.800781 4.21875 -9.53125 C 4.507812 -9.257812 5.007812 -9.050781 5.71875 -8.90625 L 7.609375 -8.515625 C 9.003906 -8.210938 10.015625 -7.707031 10.640625 -7 C 11.273438 -6.300781 11.59375 -5.382812 11.59375 -4.25 C 11.59375 -3.34375 11.398438 -2.554688 11.015625 -1.890625 C 10.628906 -1.222656 10.046875 -0.707031 9.265625 -0.34375 C 8.484375 0.0195312 7.519531 0.203125 6.375 0.203125 Z M 6.375 0.203125 "/></g></g></g><g fill="#000000" fill-opacity="1"><g transform="translate(155.487809, 24.315508)"><g><path d="M 1.5625 0 L 1.5625 -15.234375 L 4.296875 -15.234375 L 4.296875 -9.453125 L 4.5 -9.40625 C 4.863281 -9.9375 5.304688 -10.347656 5.828125 -10.640625 C 6.359375 -10.929688 6.992188 -11.078125 7.734375 -11.078125 C 10.128906 -11.078125 11.328125 -9.71875 11.328125 -7 L 11.328125 0 L 8.59375 0 L 8.59375 -6.65625 C 8.59375 -7.394531 8.445312 -7.929688 8.15625 -8.265625 C 7.863281 -8.597656 7.40625 -8.765625 6.78125 -8.765625 C 6.019531 -8.765625 5.414062 -8.507812 4.96875 -8 C 4.519531 -7.488281 4.296875 -6.695312 4.296875 -5.625 L 4.296875 0 Z M 1.5625 0 "/></g></g></g><g fill="#000000" fill-opacity="1"><g transform="translate(168.20607, 24.315508)"><g><path d="M 6.3125 0.203125 C 5.25 0.203125 4.316406 -0.015625 3.515625 -0.453125 C 2.710938 -0.890625 2.085938 -1.53125 1.640625 -2.375 C 1.191406 -3.21875 0.96875 -4.234375 0.96875 -5.421875 C 0.96875 -6.617188 1.191406 -7.640625 1.640625 -8.484375 C 2.085938 -9.335938 2.710938 -9.984375 3.515625 -10.421875 C 4.316406 -10.859375 5.25 -11.078125 6.3125 -11.078125 C 7.375 -11.078125 8.304688 -10.859375 9.109375 -10.421875 C 9.921875 -9.984375 10.546875 -9.335938 10.984375 -8.484375 C 11.429688 -7.640625 11.65625 -6.617188 11.65625 -5.421875 C 11.65625 -4.234375 11.429688 -3.21875 10.984375 -2.375 C 10.546875 -1.53125 9.921875 -0.890625 9.109375 -0.453125 C 8.304688 -0.015625 7.375 0.203125 6.3125 0.203125 Z M 6.3125 -2.109375 C 8 -2.109375 8.84375 -3.210938 8.84375 -5.421875 C 8.84375 -6.578125 8.625 -7.421875 8.1875 -7.953125 C 7.757812 -8.484375 7.132812 -8.75 6.3125 -8.75 C 4.625 -8.75 3.78125 -7.640625 3.78125 -5.421875 C 3.78125 -3.210938 4.625 -2.109375 6.3125 -2.109375 Z M 6.3125 -2.109375 "/></g></g></g><g fill="#000000" fill-opacity="1"><g transform="translate(180.825893, 24.315508)"><g><path d="M 1.5625 4.40625 L 1.5625 -10.859375 L 4.296875 -10.859375 L 4.296875 -9.453125 L 4.5 -9.40625 C 4.820312 -9.957031 5.25 -10.375 5.78125 -10.65625 C 6.320312 -10.9375 6.957031 -11.078125 7.6875 -11.078125 C 8.5625 -11.078125 9.320312 -10.867188 9.96875 -10.453125 C 10.625 -10.035156 11.132812 -9.40625 11.5 -8.5625 C 11.863281 -7.71875 12.046875 -6.671875 12.046875 -5.421875 C 12.046875 -4.179688 11.851562 -3.140625 11.46875 -2.296875 C 11.082031 -1.460938 10.546875 -0.835938 9.859375 -0.421875 C 9.179688 -0.00390625 8.394531 0.203125 7.5 0.203125 C 6.820312 0.203125 6.238281 0.09375 5.75 -0.125 C 5.257812 -0.351562 4.84375 -0.707031 4.5 -1.1875 L 4.296875 -1.15625 L 4.296875 4.40625 Z M 6.75 -2.109375 C 7.5625 -2.109375 8.175781 -2.375 8.59375 -2.90625 C 9.019531 -3.4375 9.234375 -4.273438 9.234375 -5.421875 C 9.234375 -6.578125 9.019531 -7.421875 8.59375 -7.953125 C 8.175781 -8.484375 7.5625 -8.75 6.75 -8.75 C 5.988281 -8.75 5.382812 -8.472656 4.9375 -7.921875 C 4.488281 -7.367188 4.265625 -6.535156 4.265625 -5.421875 C 4.265625 -4.316406 4.488281 -3.488281 4.9375 -2.9375 C 5.382812 -2.382812 5.988281 -2.109375 6.75 -2.109375 Z M 6.75 -2.109375 "/></g></g></g><g fill="#5271ff" fill-opacity="1"><g transform="translate(60.205594, 44.733912)"><g><path d="M 7.421875 0 L 6.375 0 L 5.625 -2.265625 L 2.109375 -2.265625 L 1.34375 0 L 0.328125 0 L 3.203125 -8.25 L 4.546875 -8.25 Z M 3.796875 -7.25 L 2.375 -3.078125 L 5.34375 -3.078125 L 3.9375 -7.25 Z M 3.796875 -7.25 "/></g></g></g><g fill="#5271ff" fill-opacity="1"><g transform="translate(67.94511, 44.733912)"><g><path d="M 3.21875 0.125 C 2.71875 0.125 2.273438 0.00390625 1.890625 -0.234375 C 1.515625 -0.472656 1.21875 -0.832031 1 -1.3125 C 0.789062 -1.800781 0.6875 -2.398438 0.6875 -3.109375 C 0.6875 -3.816406 0.796875 -4.410156 1.015625 -4.890625 C 1.242188 -5.378906 1.554688 -5.742188 1.953125 -5.984375 C 2.347656 -6.222656 2.804688 -6.34375 3.328125 -6.34375 C 3.742188 -6.34375 4.113281 -6.265625 4.4375 -6.109375 C 4.769531 -5.953125 5.054688 -5.691406 5.296875 -5.328125 L 5.421875 -5.359375 L 5.421875 -8.71875 L 6.34375 -8.71875 L 6.34375 0 L 5.421875 0 L 5.421875 -0.90625 L 5.296875 -0.9375 C 5.097656 -0.625 4.820312 -0.367188 4.46875 -0.171875 C 4.125 0.0234375 3.707031 0.125 3.21875 0.125 Z M 3.515625 -0.703125 C 4.085938 -0.703125 4.546875 -0.898438 4.890625 -1.296875 C 5.242188 -1.691406 5.421875 -2.296875 5.421875 -3.109375 C 5.421875 -3.921875 5.242188 -4.523438 4.890625 -4.921875 C 4.546875 -5.316406 4.085938 -5.515625 3.515625 -5.515625 C 2.910156 -5.515625 2.445312 -5.320312 2.125 -4.9375 C 1.800781 -4.550781 1.640625 -3.941406 1.640625 -3.109375 C 1.640625 -1.503906 2.265625 -0.703125 3.515625 -0.703125 Z M 3.515625 -0.703125 "/></g></g></g><g fill="#5271ff" fill-opacity="1"><g transform="translate(75.363554, 44.733912)"><g><path d="M 1.078125 0 L 1.078125 -6.21875 L 1.953125 -6.21875 L 1.953125 -5.296875 L 2.078125 -5.28125 C 2.285156 -5.625 2.535156 -5.882812 2.828125 -6.0625 C 3.128906 -6.25 3.488281 -6.34375 3.90625 -6.34375 C 4.394531 -6.34375 4.769531 -6.25 5.03125 -6.0625 C 5.289062 -5.882812 5.492188 -5.59375 5.640625 -5.1875 L 5.765625 -5.1875 C 5.972656 -5.5625 6.234375 -5.847656 6.546875 -6.046875 C 6.867188 -6.242188 7.257812 -6.34375 7.71875 -6.34375 C 8.351562 -6.34375 8.828125 -6.164062 9.140625 -5.8125 C 9.453125 -5.46875 9.609375 -4.941406 9.609375 -4.234375 L 9.609375 0 L 8.6875 0 L 8.6875 -4.21875 C 8.6875 -4.664062 8.59375 -4.992188 8.40625 -5.203125 C 8.21875 -5.421875 7.914062 -5.53125 7.5 -5.53125 C 7 -5.53125 6.59375 -5.347656 6.28125 -4.984375 C 5.96875 -4.628906 5.8125 -4.039062 5.8125 -3.21875 L 5.8125 0 L 4.890625 0 L 4.890625 -4.21875 C 4.890625 -4.664062 4.789062 -4.992188 4.59375 -5.203125 C 4.40625 -5.421875 4.101562 -5.53125 3.6875 -5.53125 C 3.1875 -5.53125 2.78125 -5.351562 2.46875 -5 C 2.15625 -4.65625 2 -4.09375 2 -3.3125 L 2 0 Z M 1.078125 0 "/></g></g></g><g fill="#5271ff" fill-opacity="1"><g transform="translate(85.953284, 44.733912)"><g><path d="M 1.546875 -7.421875 C 1.347656 -7.421875 1.1875 -7.476562 1.0625 -7.59375 C 0.945312 -7.71875 0.890625 -7.875 0.890625 -8.0625 C 0.890625 -8.25 0.945312 -8.40625 1.0625 -8.53125 C 1.1875 -8.65625 1.347656 -8.71875 1.546875 -8.71875 C 1.742188 -8.71875 1.898438 -8.65625 2.015625 -8.53125 C 2.140625 -8.40625 2.203125 -8.25 2.203125 -8.0625 C 2.203125 -7.875 2.140625 -7.71875 2.015625 -7.59375 C 1.898438 -7.476562 1.742188 -7.421875 1.546875 -7.421875 Z M 1.078125 0 L 1.078125 -6.21875 L 2 -6.21875 L 2 0 Z M 1.078125 0 "/></g></g></g><g fill="#5271ff" fill-opacity="1"><g transform="translate(89.034445, 44.733912)"><g><path d="M 1.078125 0 L 1.078125 -6.21875 L 1.953125 -6.21875 L 1.953125 -5.25 L 2.078125 -5.21875 C 2.285156 -5.582031 2.546875 -5.859375 2.859375 -6.046875 C 3.179688 -6.242188 3.578125 -6.34375 4.046875 -6.34375 C 4.796875 -6.34375 5.335938 -6.148438 5.671875 -5.765625 C 6.003906 -5.378906 6.171875 -4.789062 6.171875 -4 L 6.171875 0 L 5.25 0 L 5.25 -3.984375 C 5.25 -4.359375 5.203125 -4.65625 5.109375 -4.875 C 5.015625 -5.101562 4.863281 -5.269531 4.65625 -5.375 C 4.457031 -5.476562 4.195312 -5.53125 3.875 -5.53125 C 3.3125 -5.53125 2.859375 -5.34375 2.515625 -4.96875 C 2.171875 -4.601562 2 -4.007812 2 -3.1875 L 2 0 Z M 1.078125 0 "/></g></g></g><g fill="#5271ff" fill-opacity="1"><g transform="translate(96.188145, 44.733912)"><g/></g></g><g fill="#5271ff" fill-opacity="1"><g transform="translate(99.015829, 44.733912)"><g><path d="M 4.1875 -8.25 C 4.757812 -8.25 5.25 -8.144531 5.65625 -7.9375 C 6.0625 -7.738281 6.367188 -7.445312 6.578125 -7.0625 C 6.796875 -6.6875 6.90625 -6.242188 6.90625 -5.734375 C 6.90625 -5.222656 6.796875 -4.78125 6.578125 -4.40625 C 6.367188 -4.03125 6.0625 -3.738281 5.65625 -3.53125 C 5.25 -3.320312 4.757812 -3.21875 4.1875 -3.21875 L 2.21875 -3.21875 L 2.21875 0 L 1.25 0 L 1.25 -8.25 Z M 4.171875 -4.046875 C 5.316406 -4.046875 5.890625 -4.609375 5.890625 -5.734375 C 5.890625 -6.859375 5.316406 -7.421875 4.171875 -7.421875 L 2.21875 -7.421875 L 2.21875 -4.046875 Z M 4.171875 -4.046875 "/></g></g></g><g fill="#5271ff" fill-opacity="1"><g transform="translate(106.524398, 44.733912)"><g><path d="M 2.5625 0.125 C 1.945312 0.125 1.46875 -0.0351562 1.125 -0.359375 C 0.78125 -0.679688 0.609375 -1.140625 0.609375 -1.734375 C 0.609375 -2.097656 0.6875 -2.40625 0.84375 -2.65625 C 1 -2.914062 1.234375 -3.125 1.546875 -3.28125 C 1.867188 -3.445312 2.285156 -3.570312 2.796875 -3.65625 C 3.253906 -3.726562 3.597656 -3.8125 3.828125 -3.90625 C 4.066406 -4 4.222656 -4.101562 4.296875 -4.21875 C 4.378906 -4.332031 4.421875 -4.476562 4.421875 -4.65625 C 4.421875 -4.9375 4.320312 -5.148438 4.125 -5.296875 C 3.9375 -5.453125 3.628906 -5.53125 3.203125 -5.53125 C 2.796875 -5.53125 2.445312 -5.453125 2.15625 -5.296875 C 1.875 -5.140625 1.613281 -4.910156 1.375 -4.609375 L 1.265625 -4.609375 L 0.8125 -5.25 C 1.070312 -5.582031 1.40625 -5.847656 1.8125 -6.046875 C 2.21875 -6.242188 2.679688 -6.34375 3.203125 -6.34375 C 3.929688 -6.34375 4.46875 -6.179688 4.8125 -5.859375 C 5.164062 -5.535156 5.34375 -5.085938 5.34375 -4.515625 L 5.34375 -1.21875 C 5.34375 -0.875 5.488281 -0.703125 5.78125 -0.703125 C 5.882812 -0.703125 5.976562 -0.71875 6.0625 -0.75 L 6.140625 -0.734375 L 6.25 -0.09375 C 6.1875 -0.0507812 6.097656 -0.0195312 5.984375 0 C 5.867188 0.03125 5.753906 0.046875 5.640625 0.046875 C 5.296875 0.046875 5.035156 -0.0234375 4.859375 -0.171875 C 4.691406 -0.328125 4.582031 -0.550781 4.53125 -0.84375 L 4.421875 -0.859375 C 4.242188 -0.523438 4.003906 -0.273438 3.703125 -0.109375 C 3.398438 0.046875 3.019531 0.125 2.5625 0.125 Z M 2.765625 -0.609375 C 3.109375 -0.609375 3.40625 -0.6875 3.65625 -0.84375 C 3.914062 -1.007812 4.113281 -1.238281 4.25 -1.53125 C 4.382812 -1.820312 4.453125 -2.15625 4.453125 -2.53125 L 4.453125 -3.328125 L 4.34375 -3.34375 C 4.207031 -3.25 4.039062 -3.164062 3.84375 -3.09375 C 3.644531 -3.03125 3.363281 -2.972656 3 -2.921875 C 2.644531 -2.867188 2.359375 -2.789062 2.140625 -2.6875 C 1.929688 -2.59375 1.78125 -2.46875 1.6875 -2.3125 C 1.601562 -2.15625 1.5625 -1.960938 1.5625 -1.734375 C 1.5625 -1.367188 1.664062 -1.085938 1.875 -0.890625 C 2.09375 -0.703125 2.390625 -0.609375 2.765625 -0.609375 Z M 2.765625 -0.609375 "/></g></g></g><g fill="#5271ff" fill-opacity="1"><g transform="translate(112.951463, 44.733912)"><g><path d="M 1.078125 0 L 1.078125 -6.21875 L 1.953125 -6.21875 L 1.953125 -5.25 L 2.078125 -5.21875 C 2.285156 -5.582031 2.546875 -5.859375 2.859375 -6.046875 C 3.179688 -6.242188 3.578125 -6.34375 4.046875 -6.34375 C 4.796875 -6.34375 5.335938 -6.148438 5.671875 -5.765625 C 6.003906 -5.378906 6.171875 -4.789062 6.171875 -4 L 6.171875 0 L 5.25 0 L 5.25 -3.984375 C 5.25 -4.359375 5.203125 -4.65625 5.109375 -4.875 C 5.015625 -5.101562 4.863281 -5.269531 4.65625 -5.375 C 4.457031 -5.476562 4.195312 -5.53125 3.875 -5.53125 C 3.3125 -5.53125 2.859375 -5.34375 2.515625 -4.96875 C 2.171875 -4.601562 2 -4.007812 2 -3.1875 L 2 0 Z M 1.078125 0 "/></g></g></g><g fill="#5271ff" fill-opacity="1"><g transform="translate(120.105164, 44.733912)"><g><path d="M 5.921875 -2.890625 L 1.65625 -2.890625 C 1.675781 -2.140625 1.851562 -1.585938 2.1875 -1.234375 C 2.53125 -0.878906 2.992188 -0.703125 3.578125 -0.703125 C 4.023438 -0.703125 4.382812 -0.78125 4.65625 -0.9375 C 4.925781 -1.09375 5.132812 -1.34375 5.28125 -1.6875 L 5.40625 -1.6875 L 6 -1.328125 C 5.820312 -0.878906 5.535156 -0.523438 5.140625 -0.265625 C 4.742188 -0.00390625 4.222656 0.125 3.578125 0.125 C 2.972656 0.125 2.453125 0.00390625 2.015625 -0.234375 C 1.585938 -0.472656 1.257812 -0.832031 1.03125 -1.3125 C 0.800781 -1.789062 0.6875 -2.390625 0.6875 -3.109375 C 0.6875 -3.816406 0.804688 -4.410156 1.046875 -4.890625 C 1.296875 -5.378906 1.632812 -5.742188 2.0625 -5.984375 C 2.488281 -6.222656 2.976562 -6.34375 3.53125 -6.34375 C 4.320312 -6.34375 4.941406 -6.113281 5.390625 -5.65625 C 5.835938 -5.207031 6.0625 -4.546875 6.0625 -3.671875 C 6.0625 -3.316406 6.054688 -3.082031 6.046875 -2.96875 Z M 5.15625 -3.671875 C 5.144531 -4.328125 5 -4.804688 4.71875 -5.109375 C 4.4375 -5.410156 4.039062 -5.5625 3.53125 -5.5625 C 2.976562 -5.5625 2.546875 -5.410156 2.234375 -5.109375 C 1.929688 -4.804688 1.742188 -4.328125 1.671875 -3.671875 Z M 5.15625 -3.671875 "/></g></g></g><g fill="#5271ff" fill-opacity="1"><g transform="translate(126.729378, 44.733912)"><g><path d="M 2.46875 0.125 C 2.03125 0.125 1.6875 0 1.4375 -0.25 C 1.1875 -0.5 1.0625 -0.875 1.0625 -1.375 L 1.0625 -8.71875 L 1.984375 -8.71875 L 1.984375 -1.4375 C 1.984375 -1.175781 2.03125 -0.988281 2.125 -0.875 C 2.226562 -0.757812 2.382812 -0.703125 2.59375 -0.703125 C 2.71875 -0.703125 2.847656 -0.722656 2.984375 -0.765625 L 3.0625 -0.75 L 3.171875 -0.015625 C 3.097656 0.0234375 3 0.0546875 2.875 0.078125 C 2.75 0.109375 2.613281 0.125 2.46875 0.125 Z M 2.46875 0.125 "/></g></g></g></svg>