<?xml version="1.0" standalone="no"?><!DOCTYPE svg PUBLIC "-//W3C//DTD SVG 1.1//EN" "http://www.w3.org/Graphics/SVG/1.1/DTD/svg11.dtd"><svg t="1716785886217" class="icon" viewBox="0 0 1024 1024" version="1.1" xmlns="http://www.w3.org/2000/svg" p-id="1641" xmlns:xlink="http://www.w3.org/1999/xlink" width="200" height="200"><path d="M662.271594 235.638691a17.913148 17.913148 0 0 1-5.410502 12.868221 18.571182 18.571182 0 0 1-13.087565 5.300829H392.221746a18.534625 18.534625 0 0 1-13.124123-5.300829 17.913148 17.913148 0 0 1-5.373945-12.868221v-0.511804c1.060166-48.913862 16.45085-87.299179 47.744024-117.093498a139.466654 139.466654 0 0 1 175.58541-15.098225c39.006794 26.211688 61.087491 64.560448 65.693729 113.510868-0.475247 6.068536 0 12.648876-0.475247 19.192659m-165.824572 672.730109H143.704232a18.571182 18.571182 0 0 1-13.087565-5.300829 17.949706 17.949706 0 0 1-5.373945-12.868221v-2.010659L179.640201 350.209725a18.351838 18.351838 0 0 1 18.498067-16.633638h76.478176c10.272642 0 18.498067 8.042638 18.498067 18.16905v101.410354a24.493488 24.493488 0 0 0 24.639718 24.274144h30.269565a24.493488 24.493488 0 0 0 24.639718-24.274144V352.220384a18.278723 18.278723 0 0 1 18.498068-18.16905h253.635555a18.278723 18.278723 0 0 1 18.46151 18.205608v101.410353c0 13.635927 11.259693 24.237586 24.639719 24.237586h30.817926a24.493488 24.493488 0 0 0 24.639718-24.274143V352.256942a18.278723 18.278723 0 0 1 18.46151-18.205608h76.002929c9.760838 0 17.437901 7.055587 18.46151 16.633638l14.367076 142.354692c1.023608 12.612319 11.808055 21.715123 24.639718 21.715122h30.817926a24.493488 24.493488 0 0 0 24.639719-24.274143v-2.522464l-21.057089-211.923511a24.493488 24.493488 0 0 0-24.566603-22.226927H761.378829a18.498067 18.498067 0 0 1-18.498068-17.657246c-1.023608-58.053223-16.45085-105.980034-47.744023-146.851258a220.51451 220.51451 0 0 0-163.265551-88.834592 222.598285 222.598285 0 0 0-171.454419 65.620615c-39.591713 40.35942-62.147657 90.333447-66.315206 149.373721-0.475247 7.055587-0.475247 14.622978-0.475247 20.691514a17.913148 17.913148 0 0 1-5.373944 12.868221 18.571182 18.571182 0 0 1-13.087565 5.30083H130.872569a24.420373 24.420373 0 0 0-24.639718 21.715122L36.956492 960.31693A24.493488 24.493488 0 0 0 59.037189 987.07698h437.373276a24.493488 24.493488 0 0 0 24.676275-24.237586v-30.269565a24.493488 24.493488 0 0 0-24.676275-24.237586" fill="#467ED9" p-id="1642"></path><path d="M595.846716 799.500728l8.261983 7.823293a35.460722 35.460722 0 0 0 25.772999 9.797396c9.87051 0 18.644297-3.655745 25.772999-9.87051l32.901701-31.037272 55.384529-51.765342v265.041479c0 9.066246 3.801974 17.766918 10.601659 24.127914 6.799685 6.43411 16.012161 10.01674 25.62677 10.01674h13.709042c9.578051 0 18.790527-3.58263 25.590211-9.980183a33.19416 33.19416 0 0 0 10.60166-24.164471v-264.017871l47.707466 45.038773h0.548361c1.169838 0.584919 2.156889 1.462298 2.778366 2.559021l36.191871 34.181212c6.72657 6.470668 15.902489 10.089855 25.48054 10.089854 9.614608 0 18.790527-3.655745 25.517096-10.089854l8.225426-7.750179a33.450062 33.450062 0 0 0 0.548361-48.65796l-165.093423-155.807832A37.544496 37.544496 0 0 0 786.237892 584.945081c-9.651166 0-18.936757 3.655745-25.772999 10.089855l-164.581619 155.296028a33.63285 33.63285 0 0 0 0 49.169764" fill="#36D6BB" p-id="1643"></path></svg>