<?xml version="1.0" standalone="no"?><!DOCTYPE svg PUBLIC "-//W3C//DTD SVG 1.1//EN" "http://www.w3.org/Graphics/SVG/1.1/DTD/svg11.dtd"><svg t="1716785881247" class="icon" viewBox="0 0 1024 1024" version="1.1" xmlns="http://www.w3.org/2000/svg" p-id="1483" xmlns:xlink="http://www.w3.org/1999/xlink" width="200" height="200"><path d="M901.12 348.16H81.92v552.96c0 22.528 18.432 40.96 40.96 40.96h778.24c22.528 0 40.96-18.432 40.96-40.96V389.12c0-22.528-18.432-40.96-40.96-40.96zM491.52 798.72H204.8c-22.528 0-40.96-18.432-40.96-40.96s18.432-40.96 40.96-40.96h286.72c22.528 0 40.96 18.432 40.96 40.96s-18.432 40.96-40.96 40.96z m204.8-245.76H204.8c-22.528 0-40.96-18.432-40.96-40.96s18.432-40.96 40.96-40.96h491.52c22.528 0 40.96 18.432 40.96 40.96s-18.432 40.96-40.96 40.96z" fill="#9AC3FF" p-id="1484"></path><path d="M901.12 266.24h-122.88V122.88c0-67.584-55.296-122.88-122.88-122.88H122.88C55.296 0 0 55.296 0 122.88v778.24c0 67.584 55.296 122.88 122.88 122.88h778.24c67.584 0 122.88-55.296 122.88-122.88V389.12c0-67.584-55.296-122.88-122.88-122.88zM81.92 122.88c0-22.528 18.432-40.96 40.96-40.96h532.48c22.528 0 40.96 18.432 40.96 40.96v143.36H81.92V122.88z m860.16 778.24c0 22.528-18.432 40.96-40.96 40.96H122.88c-22.528 0-40.96-18.432-40.96-40.96V348.16h819.2c22.528 0 40.96 18.432 40.96 40.96v512z" fill="#467ED9" p-id="1485"></path></svg>